# xmcd CD database file
#
# Track frame offsets:
#	150
#	12440
#	26092
#	40502
#	54087
#	67175
#	80767
#	93590
#	106970
#	120585
#	134345
#	149655
#
# Disc length: 2195 seconds
#
# Revision: 0
# Processed by: cddbd v1.5.1PL2 Copyright (c) Steve Scherf et al.
# Submitted via: CDex 1.51
#
DISCID=a608910c
DTITLE=Loaded - Vido Musso, Stan Getz and Kay Winding
DYEAR=1945
DGENRE=Jazz
TTITLE0=Moose In A Caboose
TTITLE1=Moose On The Loose
TTITLE2=My Jo-Ann
TTITLE3=Vido In A Jam
TTITLE4=Bassology
TTITLE5=Spellbound
TTITLE6=Lem Mego
TTITLE7=Jam Session At Savoy
TTITLE8=Sweet Miss
TTITLE9=Loaded
TTITLE10=Grab Your Axe Max
TTITLE11=Always
EXTD=YEAR: 1945
EXTT0=
EXTT1=
EXTT2=
EXTT3=
EXTT4=
EXTT5=
EXTT6=
EXTT7=
EXTT8=
EXTT9=
EXTT10=
EXTT11=
PLAYORDER=
